<svg width="21" height="25" viewBox="0 0 21 25" fill="none" xmlns="http://www.w3.org/2000/svg">
<path d="M5.83942 10.0129L6.55308 16.3494H13.3654L14.079 9.77502L5.83942 10.0129Z" fill="#FFCB00"/>
<path d="M13.3218 11.3322V24.1566C17.0415 24.1566 16.5874 21.237 16.5874 17.7552C16.5874 14.2734 20.026 13.7111 20.026 13.7111C20.026 13.7111 18.923 7.13668 17.1713 4.00087C15.4196 0.865053 12.6298 0 10.013 0C7.3962 0 4.60639 0.865053 2.85466 4.00087C1.10293 7.13668 0 13.7111 0 13.7111C0 13.7111 3.43858 14.2734 3.43858 17.7552C3.43858 21.237 2.96281 24.1566 6.70416 24.1566V11.3322" fill="url(#paint0_radial_60_124)"/>
<g opacity="0.3">
<path d="M6.68316 21.0858V20.3505H3.52573C3.52573 20.61 3.54736 20.8479 3.56898 21.0858H6.68316Z" fill="url(#paint1_radial_60_124)"/>
<path d="M6.68296 19.2689V18.5336H3.41739C3.41739 18.7931 3.41739 19.031 3.41739 19.2689H6.68296Z" fill="url(#paint2_radial_60_124)"/>
<path d="M6.59652 10.186V9.45068H0.930421C0.865542 9.7102 0.800658 9.94809 0.735779 10.186H6.59652Z" fill="url(#paint3_radial_60_124)"/>
<path d="M6.70473 12.0026V11.2673H0.497975C0.433096 11.5268 0.389841 11.7864 0.346588 12.0026H6.70473Z" fill="url(#paint4_radial_60_124)"/>
<path d="M6.68312 17.4524V16.7172H3.30942C3.35267 16.9551 3.39592 17.1929 3.41755 17.4524H6.68312Z" fill="url(#paint5_radial_60_124)"/>
<path d="M6.59635 7.63416H1.42766C1.36278 7.87204 1.27627 8.13155 1.2114 8.36944H6.59635V7.63416Z" fill="url(#paint6_radial_60_124)"/>
<path d="M13.3224 13.8193H19.5724C19.8319 13.7328 20.005 13.7111 20.005 13.7111C20.005 13.7111 19.9617 13.4733 19.8968 13.084H13.3224V13.8193Z" fill="url(#paint7_radial_60_124)"/>
<path d="M6.70451 13.084H0.130104C0.0652253 13.4949 0.0219727 13.7111 0.0219727 13.7111C0.0219727 13.7111 0.194983 13.7328 0.454499 13.8193H6.70451V13.084Z" fill="url(#paint8_radial_60_124)"/>
<path d="M17.972 5.81749H14.6848C14.9227 5.47147 15.1389 5.10382 15.3768 4.73617H17.5178C17.4097 4.47666 17.2799 4.23877 17.1502 4.00088C17.1502 4.00088 17.1502 4.00088 17.1502 3.97925H15.8742C16.0905 3.65486 16.3067 3.30884 16.523 2.98445C16.3716 2.76818 16.1986 2.57354 16.0256 2.37891C15.7012 2.87631 15.3768 3.37372 15.0524 3.89275C14.4253 4.84431 13.9062 5.62285 13.3439 6.53116H18.2531C18.145 6.29327 18.0585 6.05538 17.972 5.81749Z" fill="url(#paint9_radial_60_124)"/>
<path d="M13.3224 14.9004V15.6357H17.1286C17.3017 15.3545 17.4963 15.095 17.7126 14.9004H13.3224Z" fill="url(#paint10_radial_60_124)"/>
<path d="M6.68302 14.9004H2.29288C2.50914 15.1167 2.70378 15.3545 2.87679 15.6357H6.68302V14.9004Z" fill="url(#paint11_radial_60_124)"/>
<path d="M13.3224 20.3505V21.0858H16.5447C16.5664 20.8479 16.5664 20.5884 16.588 20.3505H13.3224Z" fill="url(#paint12_radial_60_124)"/>
<path d="M13.3224 16.7172V17.4524H16.588C16.6096 17.1929 16.6312 16.9334 16.6961 16.7172H13.3224Z" fill="url(#paint13_radial_60_124)"/>
<path d="M13.3005 11.2673V11.3322H13.3221V12.0026H19.6803C19.637 11.7647 19.5721 11.5268 19.5289 11.2673H13.3005Z" fill="url(#paint14_radial_60_124)"/>
<path d="M13.6467 9.45068V10.186H19.2695C19.2046 9.94809 19.1397 9.68857 19.0749 9.45068H13.6467Z" fill="url(#paint15_radial_60_124)"/>
<path d="M13.6682 7.63416V8.36944H18.7936C18.7287 8.13155 18.6422 7.87204 18.5773 7.63416H13.6682Z" fill="url(#paint16_radial_60_124)"/>
<path d="M6.68297 22.9022V22.1669H3.63367C3.69855 22.448 3.80667 22.6859 3.93643 22.9022H6.68297Z" fill="url(#paint17_radial_60_124)"/>
<path d="M13.3224 18.5336V19.2689H16.588C16.588 19.031 16.588 18.7715 16.588 18.5336H13.3224Z" fill="url(#paint18_radial_60_124)"/>
<path d="M6.14223 5.81745L5.47182 4.73613L4.99604 4.00084L4.00124 2.42212C3.82823 2.61676 3.6552 2.81139 3.50382 3.02765L4.13099 4.00084H2.87666C2.87666 4.00084 2.87666 4.00084 2.87666 4.02247C2.74691 4.23873 2.63877 4.49824 2.50901 4.75776H4.60677L5.27718 5.83907H2.05487C1.96836 6.07696 1.88185 6.33648 1.79535 6.57437H5.75296H6.44501H6.50988H6.59639L6.14223 5.81745Z" fill="url(#paint19_radial_60_124)"/>
<path d="M16.3717 22.1669H13.3224V22.9022H16.069C16.1987 22.6859 16.3068 22.4264 16.3717 22.1669Z" fill="url(#paint20_radial_60_124)"/>
<path d="M14.0574 0.908135C13.8412 0.800003 13.6033 0.691872 13.387 0.58374L11.7434 5.8173L12.4571 6.03357L14.0574 0.908135Z" fill="url(#paint21_radial_60_124)"/>
<path d="M8.19679 5.83901L8.97535 6.01202L7.76426 0.237793C7.52637 0.302672 7.28849 0.345923 7.0506 0.432428L8.19679 5.83901Z" fill="url(#paint22_radial_60_124)"/>
<path d="M10.2296 0L9.94849 5.86073L10.6838 5.90399L10.9649 0.0648829C10.727 0.0216303 10.4891 0 10.2296 0Z" fill="url(#paint23_radial_60_124)"/>
</g>
<path d="M8.67263 14.0137L6.29373 10.6832V6.85538L7.39667 5.75244H12.6302L13.7332 6.85538V10.6832L11.3543 14.0137H8.67263Z" fill="url(#paint24_linear_60_124)"/>
<path d="M6.31516 8.19607C6.31516 8.19607 6.0989 7.69866 5.53661 7.72029C4.97433 7.74192 4.97433 9.23414 5.23384 9.75317C5.49336 10.2722 6.31516 10.3154 6.31516 10.3154V8.19607Z" fill="#FFEA9E"/>
<path d="M9.34289 7.67713C9.34289 7.67713 8.62922 6.87695 7.93718 6.87695C7.24514 6.87695 6.61798 7.52574 6.61798 7.52574" stroke="#8A6600" stroke-width="0.111549" stroke-miterlimit="10" stroke-linecap="round"/>
<path d="M6.72592 8.75862C6.72592 8.75862 7.30984 8.15308 8.00188 8.15308C8.71555 8.15308 9.27782 8.4126 9.27782 8.75862C9.27782 9.08302 8.69392 9.36416 8.00188 9.36416C7.30984 9.36416 6.72592 8.75862 6.72592 8.75862Z" fill="white" stroke="#FFCB00" stroke-width="0.223119" stroke-miterlimit="10"/>
<path d="M13.6896 8.19607C13.6896 8.19607 13.9059 7.69866 14.4682 7.72029C15.0305 7.74192 15.0305 9.23414 14.771 9.75317C14.5114 10.2722 13.6896 10.3154 13.6896 10.3154V8.19607Z" fill="#FFEA9E"/>
<path d="M10.6623 7.67713C10.6623 7.67713 11.376 6.87695 12.068 6.87695C12.76 6.87695 13.3872 7.52574 13.3872 7.52574" stroke="#8A6600" stroke-width="0.111549" stroke-miterlimit="10" stroke-linecap="round"/>
<path d="M13.2787 8.75862C13.2787 8.75862 12.6948 8.15308 12.0028 8.15308C11.2891 8.15308 10.7268 8.4126 10.7268 8.75862C10.7268 9.08302 11.3108 9.36416 12.0028 9.36416C12.7165 9.36416 13.2787 8.75862 13.2787 8.75862Z" fill="white" stroke="#FFCB00" stroke-width="0.223119" stroke-miterlimit="10"/>
<path d="M9.04025 11.397L9.4944 10.5752L9.51603 9.12622H10.5108L10.5325 10.5752L10.965 11.397H9.04025Z" fill="url(#paint25_linear_60_124)"/>
<path d="M9.23465 14.0138L9.53742 21.8858H10.4241L10.7485 14.0138H9.23465Z" fill="url(#paint26_linear_60_124)"/>
<defs>
<radialGradient id="paint0_radial_60_124" cx="0" cy="0" r="1" gradientUnits="userSpaceOnUse" gradientTransform="translate(10.0075 12.0762) scale(11.835 11.835)">
<stop stop-color="#B88A00"/>
<stop offset="0.036441" stop-color="#C49500"/>
<stop offset="0.1211" stop-color="#DAA900"/>
<stop offset="0.2211" stop-color="#EBB900"/>
<stop offset="0.3448" stop-color="#F6C300"/>
<stop offset="0.5183" stop-color="#FDCA00"/>
<stop offset="1" stop-color="#FFCB00"/>
</radialGradient>
<radialGradient id="paint1_radial_60_124" cx="0" cy="0" r="1" gradientUnits="userSpaceOnUse" gradientTransform="translate(10.3169 10.5734) scale(15.2911 15.2913)">
<stop stop-color="#6F5100"/>
<stop offset="0.1771" stop-color="#725400"/>
<stop offset="0.343" stop-color="#7E5E00"/>
<stop offset="0.5045" stop-color="#916E00"/>
<stop offset="0.6633" stop-color="#AB8400"/>
<stop offset="0.8201" stop-color="#CEA100"/>
<stop offset="0.9734" stop-color="#F7C500"/>
<stop offset="1" stop-color="#FFCB00"/>
</radialGradient>
<radialGradient id="paint2_radial_60_124" cx="0" cy="0" r="1" gradientUnits="userSpaceOnUse" gradientTransform="translate(10.3169 10.573) scale(15.2912 15.2913)">
<stop stop-color="#6F5100"/>
<stop offset="0.1771" stop-color="#725400"/>
<stop offset="0.343" stop-color="#7E5E00"/>
<stop offset="0.5045" stop-color="#916E00"/>
<stop offset="0.6633" stop-color="#AB8400"/>
<stop offset="0.8201" stop-color="#CEA100"/>
<stop offset="0.9734" stop-color="#F7C500"/>
<stop offset="1" stop-color="#FFCB00"/>
</radialGradient>
<radialGradient id="paint3_radial_60_124" cx="0" cy="0" r="1" gradientUnits="userSpaceOnUse" gradientTransform="translate(10.3169 10.5724) scale(15.2924 15.2925)">
<stop stop-color="#6F5100"/>
<stop offset="0.1771" stop-color="#725400"/>
<stop offset="0.343" stop-color="#7E5E00"/>
<stop offset="0.5045" stop-color="#916E00"/>
<stop offset="0.6633" stop-color="#AB8400"/>
<stop offset="0.8201" stop-color="#CEA100"/>
<stop offset="0.9734" stop-color="#F7C500"/>
<stop offset="1" stop-color="#FFCB00"/>
</radialGradient>
<radialGradient id="paint4_radial_60_124" cx="0" cy="0" r="1" gradientUnits="userSpaceOnUse" gradientTransform="translate(10.3176 10.5723) scale(15.2928 15.2929)">
<stop stop-color="#6F5100"/>
<stop offset="0.1771" stop-color="#725400"/>
<stop offset="0.343" stop-color="#7E5E00"/>
<stop offset="0.5045" stop-color="#916E00"/>
<stop offset="0.6633" stop-color="#AB8400"/>
<stop offset="0.8201" stop-color="#CEA100"/>
<stop offset="0.9734" stop-color="#F7C500"/>
<stop offset="1" stop-color="#FFCB00"/>
</radialGradient>
<radialGradient id="paint5_radial_60_124" cx="0" cy="0" r="1" gradientUnits="userSpaceOnUse" gradientTransform="translate(10.317 10.5714) scale(15.2945 15.2943)">
<stop stop-color="#6F5100"/>
<stop offset="0.1771" stop-color="#725400"/>
<stop offset="0.343" stop-color="#7E5E00"/>
<stop offset="0.5045" stop-color="#916E00"/>
<stop offset="0.6633" stop-color="#AB8400"/>
<stop offset="0.8201" stop-color="#CEA100"/>
<stop offset="0.9734" stop-color="#F7C500"/>
<stop offset="1" stop-color="#FFCB00"/>
</radialGradient>
<radialGradient id="paint6_radial_60_124" cx="0" cy="0" r="1" gradientUnits="userSpaceOnUse" gradientTransform="translate(10.3169 10.5717) scale(15.2921 15.2919)">
<stop stop-color="#6F5100"/>
<stop offset="0.1771" stop-color="#725400"/>
<stop offset="0.343" stop-color="#7E5E00"/>
<stop offset="0.5045" stop-color="#916E00"/>
<stop offset="0.6633" stop-color="#AB8400"/>
<stop offset="0.8201" stop-color="#CEA100"/>
<stop offset="0.9734" stop-color="#F7C500"/>
<stop offset="1" stop-color="#FFCB00"/>
</radialGradient>
<radialGradient id="paint7_radial_60_124" cx="0" cy="0" r="1" gradientUnits="userSpaceOnUse" gradientTransform="translate(10.3173 10.5715) scale(15.2935 15.2933)">
<stop stop-color="#6F5100"/>
<stop offset="0.1771" stop-color="#725400"/>
<stop offset="0.343" stop-color="#7E5E00"/>
<stop offset="0.5045" stop-color="#916E00"/>
<stop offset="0.6633" stop-color="#AB8400"/>
<stop offset="0.8201" stop-color="#CEA100"/>
<stop offset="0.9734" stop-color="#F7C500"/>
<stop offset="1" stop-color="#FFCB00"/>
</radialGradient>
<radialGradient id="paint8_radial_60_124" cx="0" cy="0" r="1" gradientUnits="userSpaceOnUse" gradientTransform="translate(10.3173 10.5715) scale(15.2949 15.2947)">
<stop stop-color="#6F5100"/>
<stop offset="0.1771" stop-color="#725400"/>
<stop offset="0.343" stop-color="#7E5E00"/>
<stop offset="0.5045" stop-color="#916E00"/>
<stop offset="0.6633" stop-color="#AB8400"/>
<stop offset="0.8201" stop-color="#CEA100"/>
<stop offset="0.9734" stop-color="#F7C500"/>
<stop offset="1" stop-color="#FFCB00"/>
</radialGradient>
<radialGradient id="paint9_radial_60_124" cx="0" cy="0" r="1" gradientUnits="userSpaceOnUse" gradientTransform="translate(10.3169 10.572) scale(15.2934 15.2934)">
<stop stop-color="#6F5100"/>
<stop offset="0.1771" stop-color="#725400"/>
<stop offset="0.343" stop-color="#7E5E00"/>
<stop offset="0.5045" stop-color="#916E00"/>
<stop offset="0.6633" stop-color="#AB8400"/>
<stop offset="0.8201" stop-color="#CEA100"/>
<stop offset="0.9734" stop-color="#F7C500"/>
<stop offset="1" stop-color="#FFCB00"/>
</radialGradient>
<radialGradient id="paint10_radial_60_124" cx="0" cy="0" r="1" gradientUnits="userSpaceOnUse" gradientTransform="translate(10.3171 10.5727) scale(15.2925 15.2926)">
<stop stop-color="#6F5100"/>
<stop offset="0.1771" stop-color="#725400"/>
<stop offset="0.343" stop-color="#7E5E00"/>
<stop offset="0.5045" stop-color="#916E00"/>
<stop offset="0.6633" stop-color="#AB8400"/>
<stop offset="0.8201" stop-color="#CEA100"/>
<stop offset="0.9734" stop-color="#F7C500"/>
<stop offset="1" stop-color="#FFCB00"/>
</radialGradient>
<radialGradient id="paint11_radial_60_124" cx="0" cy="0" r="1" gradientUnits="userSpaceOnUse" gradientTransform="translate(10.3169 10.5727) scale(15.2911 15.2912)">
<stop stop-color="#6F5100"/>
<stop offset="0.1771" stop-color="#725400"/>
<stop offset="0.343" stop-color="#7E5E00"/>
<stop offset="0.5045" stop-color="#916E00"/>
<stop offset="0.6633" stop-color="#AB8400"/>
<stop offset="0.8201" stop-color="#CEA100"/>
<stop offset="0.9734" stop-color="#F7C500"/>
<stop offset="1" stop-color="#FFCB00"/>
</radialGradient>
<radialGradient id="paint12_radial_60_124" cx="0" cy="0" r="1" gradientUnits="userSpaceOnUse" gradientTransform="translate(10.3174 10.5734) scale(15.2913 15.2915)">
<stop stop-color="#6F5100"/>
<stop offset="0.1771" stop-color="#725400"/>
<stop offset="0.343" stop-color="#7E5E00"/>
<stop offset="0.5045" stop-color="#916E00"/>
<stop offset="0.6633" stop-color="#AB8400"/>
<stop offset="0.8201" stop-color="#CEA100"/>
<stop offset="0.9734" stop-color="#F7C500"/>
<stop offset="1" stop-color="#FFCB00"/>
</radialGradient>
<radialGradient id="paint13_radial_60_124" cx="0" cy="0" r="1" gradientUnits="userSpaceOnUse" gradientTransform="translate(10.3174 10.5714) scale(15.2939 15.2937)">
<stop stop-color="#6F5100"/>
<stop offset="0.1771" stop-color="#725400"/>
<stop offset="0.343" stop-color="#7E5E00"/>
<stop offset="0.5045" stop-color="#916E00"/>
<stop offset="0.6633" stop-color="#AB8400"/>
<stop offset="0.8201" stop-color="#CEA100"/>
<stop offset="0.9734" stop-color="#F7C500"/>
<stop offset="1" stop-color="#FFCB00"/>
</radialGradient>
<radialGradient id="paint14_radial_60_124" cx="0" cy="0" r="1" gradientUnits="userSpaceOnUse" gradientTransform="translate(10.3172 10.5723) scale(15.2922 15.2923)">
<stop stop-color="#6F5100"/>
<stop offset="0.1771" stop-color="#725400"/>
<stop offset="0.343" stop-color="#7E5E00"/>
<stop offset="0.5045" stop-color="#916E00"/>
<stop offset="0.6633" stop-color="#AB8400"/>
<stop offset="0.8201" stop-color="#CEA100"/>
<stop offset="0.9734" stop-color="#F7C500"/>
<stop offset="1" stop-color="#FFCB00"/>
</radialGradient>
<radialGradient id="paint15_radial_60_124" cx="0" cy="0" r="1" gradientUnits="userSpaceOnUse" gradientTransform="translate(10.3173 10.5724) scale(15.2923 15.2924)">
<stop stop-color="#6F5100"/>
<stop offset="0.1771" stop-color="#725400"/>
<stop offset="0.343" stop-color="#7E5E00"/>
<stop offset="0.5045" stop-color="#916E00"/>
<stop offset="0.6633" stop-color="#AB8400"/>
<stop offset="0.8201" stop-color="#CEA100"/>
<stop offset="0.9734" stop-color="#F7C500"/>
<stop offset="1" stop-color="#FFCB00"/>
</radialGradient>
<radialGradient id="paint16_radial_60_124" cx="0" cy="0" r="1" gradientUnits="userSpaceOnUse" gradientTransform="translate(10.317 10.5717) scale(15.2929 15.2927)">
<stop stop-color="#6F5100"/>
<stop offset="0.1771" stop-color="#725400"/>
<stop offset="0.343" stop-color="#7E5E00"/>
<stop offset="0.5045" stop-color="#916E00"/>
<stop offset="0.6633" stop-color="#AB8400"/>
<stop offset="0.8201" stop-color="#CEA100"/>
<stop offset="0.9734" stop-color="#F7C500"/>
<stop offset="1" stop-color="#FFCB00"/>
</radialGradient>
<radialGradient id="paint17_radial_60_124" cx="0" cy="0" r="1" gradientUnits="userSpaceOnUse" gradientTransform="translate(10.3166 10.5737) scale(15.291 15.2909)">
<stop stop-color="#6F5100"/>
<stop offset="0.1771" stop-color="#725400"/>
<stop offset="0.343" stop-color="#7E5E00"/>
<stop offset="0.5045" stop-color="#916E00"/>
<stop offset="0.6633" stop-color="#AB8400"/>
<stop offset="0.8201" stop-color="#CEA100"/>
<stop offset="0.9734" stop-color="#F7C500"/>
<stop offset="1" stop-color="#FFCB00"/>
</radialGradient>
<radialGradient id="paint18_radial_60_124" cx="0" cy="0" r="1" gradientUnits="userSpaceOnUse" gradientTransform="translate(10.3173 10.573) scale(15.2916 15.2917)">
<stop stop-color="#6F5100"/>
<stop offset="0.1771" stop-color="#725400"/>
<stop offset="0.343" stop-color="#7E5E00"/>
<stop offset="0.5045" stop-color="#916E00"/>
<stop offset="0.6633" stop-color="#AB8400"/>
<stop offset="0.8201" stop-color="#CEA100"/>
<stop offset="0.9734" stop-color="#F7C500"/>
<stop offset="1" stop-color="#FFCB00"/>
</radialGradient>
<radialGradient id="paint19_radial_60_124" cx="0" cy="0" r="1" gradientUnits="userSpaceOnUse" gradientTransform="translate(10.3168 10.5719) scale(15.2923 15.2923)">
<stop stop-color="#6F5100"/>
<stop offset="0.1771" stop-color="#725400"/>
<stop offset="0.343" stop-color="#7E5E00"/>
<stop offset="0.5045" stop-color="#916E00"/>
<stop offset="0.6633" stop-color="#AB8400"/>
<stop offset="0.8201" stop-color="#CEA100"/>
<stop offset="0.9734" stop-color="#F7C500"/>
<stop offset="1" stop-color="#FFCB00"/>
</radialGradient>
<radialGradient id="paint20_radial_60_124" cx="0" cy="0" r="1" gradientUnits="userSpaceOnUse" gradientTransform="translate(10.3174 10.5737) scale(15.2913 15.2911)">
<stop stop-color="#6F5100"/>
<stop offset="0.1771" stop-color="#725400"/>
<stop offset="0.343" stop-color="#7E5E00"/>
<stop offset="0.5045" stop-color="#916E00"/>
<stop offset="0.6633" stop-color="#AB8400"/>
<stop offset="0.8201" stop-color="#CEA100"/>
<stop offset="0.9734" stop-color="#F7C500"/>
<stop offset="1" stop-color="#FFCB00"/>
</radialGradient>
<radialGradient id="paint21_radial_60_124" cx="0" cy="0" r="1" gradientUnits="userSpaceOnUse" gradientTransform="translate(10.3167 10.5719) scale(15.2937 15.2937)">
<stop stop-color="#6F5100"/>
<stop offset="0.1771" stop-color="#725400"/>
<stop offset="0.343" stop-color="#7E5E00"/>
<stop offset="0.5045" stop-color="#916E00"/>
<stop offset="0.6633" stop-color="#AB8400"/>
<stop offset="0.8201" stop-color="#CEA100"/>
<stop offset="0.9734" stop-color="#F7C500"/>
<stop offset="1" stop-color="#FFCB00"/>
</radialGradient>
<radialGradient id="paint22_radial_60_124" cx="0" cy="0" r="1" gradientUnits="userSpaceOnUse" gradientTransform="translate(10.3171 10.5725) scale(15.2934 15.2934)">
<stop stop-color="#6F5100"/>
<stop offset="0.1771" stop-color="#725400"/>
<stop offset="0.343" stop-color="#7E5E00"/>
<stop offset="0.5045" stop-color="#916E00"/>
<stop offset="0.6633" stop-color="#AB8400"/>
<stop offset="0.8201" stop-color="#CEA100"/>
<stop offset="0.9734" stop-color="#F7C500"/>
<stop offset="1" stop-color="#FFCB00"/>
</radialGradient>
<radialGradient id="paint23_radial_60_124" cx="0" cy="0" r="1" gradientUnits="userSpaceOnUse" gradientTransform="translate(10.3173 10.5721) scale(15.2925 15.2927)">
<stop stop-color="#6F5100"/>
<stop offset="0.1771" stop-color="#725400"/>
<stop offset="0.343" stop-color="#7E5E00"/>
<stop offset="0.5045" stop-color="#916E00"/>
<stop offset="0.6633" stop-color="#AB8400"/>
<stop offset="0.8201" stop-color="#CEA100"/>
<stop offset="0.9734" stop-color="#F7C500"/>
<stop offset="1" stop-color="#FFCB00"/>
</radialGradient>
<linearGradient id="paint24_linear_60_124" x1="10.0081" y1="14.0107" x2="10.0081" y2="5.93116" gradientUnits="userSpaceOnUse">
<stop stop-color="#FFEA9E"/>
<stop offset="0.41" stop-color="#FFE99D"/>
<stop offset="0.5577" stop-color="#FEE796"/>
<stop offset="0.663" stop-color="#FDE38A"/>
<stop offset="0.7481" stop-color="#FBDD79"/>
<stop offset="0.821" stop-color="#F8D563"/>
<stop offset="0.8856" stop-color="#F5CC48"/>
<stop offset="0.9428" stop-color="#F2C128"/>
<stop offset="0.9948" stop-color="#EEB504"/>
<stop offset="1" stop-color="#EDB300"/>
</linearGradient>
<linearGradient id="paint25_linear_60_124" x1="10.0079" y1="9.09086" x2="10.0079" y2="11.3832" gradientUnits="userSpaceOnUse">
<stop stop-color="#FFEA9E"/>
<stop offset="0.1258" stop-color="#FEE898"/>
<stop offset="0.2948" stop-color="#FCE287"/>
<stop offset="0.4884" stop-color="#F9D86B"/>
<stop offset="0.7002" stop-color="#F5CB44"/>
<stop offset="0.9245" stop-color="#EFBA12"/>
<stop offset="1" stop-color="#EDB300"/>
</linearGradient>
<linearGradient id="paint26_linear_60_124" x1="9.98214" y1="13.8297" x2="9.98214" y2="22.1296" gradientUnits="userSpaceOnUse">
<stop stop-color="#A67C00"/>
<stop offset="0.2935" stop-color="#AA7F00"/>
<stop offset="0.5683" stop-color="#B58800"/>
<stop offset="0.835" stop-color="#C89600"/>
<stop offset="1" stop-color="#D8A200"/>
</linearGradient>
</defs>
</svg>
