<svg width="51" height="51" viewBox="0 0 51 51" fill="none" xmlns="http://www.w3.org/2000/svg">
<rect width="51" height="51" rx="25.5" fill="#F3F3F3"/>
<path d="M26.3265 8.79312C16.6189 8.82829 8.75791 16.7245 8.79309 26.4321C8.82826 36.1397 16.7245 44.0007 26.4321 43.9655C36.1396 43.9304 44.0007 36.0342 43.9655 26.3266C43.9303 16.619 36.0341 8.77553 26.3265 8.79312ZM30.3538 26.5552C31.7255 27.03 33.5721 28.05 33.5721 31.1979C33.5721 33.9062 31.4441 36.0869 28.8414 36.0869H27.6983V37.1069C27.6983 37.8279 27.1003 38.4259 26.3793 38.4259C25.6583 38.4259 25.0603 37.8279 25.0603 37.1069V36.0869H24.4272C21.5431 36.0869 19.2041 33.66 19.2041 30.6704C19.2041 29.9493 19.8021 29.3514 20.5231 29.3514C21.2441 29.3514 21.8421 29.9493 21.8421 30.6704C21.8421 32.2004 23.0027 33.449 24.4272 33.449H25.0603V27.5048L22.4048 26.5552C21.0331 26.0804 19.1865 25.0604 19.1865 21.9124C19.1865 19.2042 21.3145 17.0235 23.9172 17.0235H25.0603V16.0035C25.0603 15.2824 25.6583 14.6845 26.3793 14.6845C27.1003 14.6845 27.6983 15.2824 27.6983 16.0035V17.0235H28.3314C31.2155 17.0235 33.5545 19.4504 33.5545 22.44C33.5545 23.1611 32.9565 23.759 32.2355 23.759C31.5145 23.759 30.9165 23.1611 30.9165 22.44C30.9165 20.91 29.7558 19.6614 28.3314 19.6614H27.6983V25.6055L30.3538 26.5552Z" fill="#FFCF67"/>
<path d="M27.6982 33.2732H28.8413C29.9844 33.2732 30.9341 32.2532 30.9341 31.0222C30.9341 29.4922 30.3889 29.1932 29.492 28.8767L27.7158 28.2612V33.2732H27.6982Z" fill="#FFCF67"/>
<path d="M21.8418 21.7543C21.8418 23.2843 22.387 23.5832 23.2839 23.8998L25.0601 24.5153V19.4857H23.917C22.7739 19.4857 21.8418 20.5057 21.8418 21.7543Z" fill="#FFCF67"/>
</svg>
