<svg width="458" height="447" viewBox="0 0 458 447" fill="none" xmlns="http://www.w3.org/2000/svg">
<path d="M403.89 384.313C392.183 396.379 381.709 403.472 373.69 408.827C295.478 461.049 206.072 445.998 178.431 440.853C133.834 432.552 96.1882 426.697 63.8437 397.475C-9.65261 331.074 -6.07786 192.556 50.0822 106.751C56.7411 96.5767 112.816 13.4559 202.415 1.74342C204.607 1.45703 206.242 1.29379 207.674 1.1421C221.535 -0.325453 307.426 -8.07082 377.463 50.6057C387.488 59.005 403.622 74.155 418.583 97.2613C473.288 181.749 473.461 312.601 403.89 384.313Z" fill="url(#paint0_linear_55_4404)"/>
<path d="M116.708 20.939C106.016 21.8687 97.8191 30.8228 97.7887 41.5546C97.6025 107.184 97.2954 333.556 101.573 413.679C102.026 422.168 108.985 428.836 117.485 428.927C159.526 429.38 280.456 430.211 349.108 425.82C363.407 424.905 374.534 413.063 374.517 398.734C374.433 329.854 373.332 136.14 363.897 47.5949C362.767 36.986 354.239 28.705 343.602 27.8762C297.75 24.3036 175.989 15.7833 116.708 20.939Z" fill="#B9964A"/>
<path d="M114.664 58.7537C113.838 114.894 111.488 301.648 115.591 370.575C116.191 380.65 124.017 388.604 133.68 388.941C173.466 390.327 275.489 393.01 333.625 386.614C344.093 385.462 352.093 376.388 352.372 365.401C353.827 308.111 357.755 134.171 353.766 66.0139C353.13 55.141 344.823 46.4651 334.41 45.7635C291.332 42.8608 180.711 36.1666 131.275 40.2835C121.995 41.0564 114.807 49.0346 114.664 58.7537Z" fill="#FFE16D" fill-opacity="0.87"/>
<path d="M210.792 30.7C210.826 32.2509 212.063 33.5036 213.613 33.5507C221.269 33.7834 242.834 34.4436 252.473 34.7907C254.374 34.8592 255.826 33.1203 255.425 31.2612C255.392 31.2027 255.145 28.819 252.711 28.6499C246.191 28.1964 226.519 26.9742 213.52 27.7241C210.85 27.8782 210.705 30.914 210.792 30.7Z" fill="white"/>
<path d="M161.362 228.292C161.362 228.292 216.199 214.536 274.139 222.831C290.441 225.166 304.88 234.65 313.677 248.572C329.528 273.656 351.938 318.356 347.198 364.976L322.319 371.127C322.319 371.127 305.125 315.803 285.774 293.287C285.774 293.287 262.855 345.527 264.014 374.213C264.047 375.024 264.099 375.816 264.171 376.588C266.801 404.654 154.156 381.825 154.156 381.825L161.362 228.292Z" fill="url(#paint1_linear_55_4404)"/>
<path d="M220.645 181.46L208.97 218.648C207.884 222.107 208.964 225.812 211.677 227.901C217.926 232.714 230.277 240.376 245.368 240.156C248.13 240.116 250.451 237.759 250.644 234.867L254.792 172.711L220.645 181.46Z" fill="url(#paint2_linear_55_4404)"/>
<path d="M265.851 140.704C265.851 140.704 270.386 169.99 267.53 183.986C264.674 197.981 265.295 207.713 248.616 206.3C231.937 204.887 220.589 193.412 216.92 177.759C216.92 177.759 211.078 153.59 215.915 145.592C220.751 137.594 265.851 140.704 265.851 140.704Z" fill="url(#paint3_linear_55_4404)"/>
<path d="M224.965 169.312L226.981 169.842C226.981 169.842 223.151 150.619 231.237 149.543C239.323 148.467 269.787 150.168 278.721 141.547C287.334 133.237 285.327 119.051 278.242 113.367C277.794 113.008 277.132 113.089 276.744 113.513L275.748 114.596C275.067 115.338 273.829 114.873 273.804 113.866C273.78 112.911 272.635 112.402 271.94 113.058C269.225 115.625 262.743 119.255 248.201 118.171C227.568 116.632 212.466 121.179 208.572 134.695C208.326 135.551 207.28 135.784 206.662 135.142C205.442 133.875 203.226 132.849 199.432 134.645C192.835 137.769 191.949 150.136 201.248 162.944C201.689 163.552 201.454 164.43 200.74 164.667C198.225 165.5 194.151 167.986 201.28 174.599C208.574 181.364 213.725 182.189 215.748 182.202C216.292 182.205 216.757 181.831 216.862 181.297L219.285 169.049C219.41 168.415 220.043 168.019 220.668 168.183L224.965 169.312Z" fill="#6F5100"/>
<path d="M224.799 171.964C224.799 171.964 224.845 154.03 216.082 156.759C207.319 159.488 215.046 176.595 220.932 178.813L224.799 171.964Z" fill="url(#paint4_linear_55_4404)"/>
<path d="M163.65 346.091C161.221 328.939 177.036 297.763 184.383 288.195C186.485 285.458 187.66 282.112 187.69 278.662C187.905 254.369 177.705 238.768 161.362 228.292C161.362 228.292 102.045 297.397 117.149 350.551C118.778 356.288 121.304 361.216 124.506 365.451C126.886 345.423 151.984 347.016 163.65 346.091Z" fill="#84560E"/>
<path d="M162.808 333.495L160.548 333.237C162.463 316.416 177.224 295.65 183.481 287.502L185.286 288.888C179.144 296.885 164.66 317.24 162.808 333.495Z" fill="#BDBDBD"/>
<path d="M163.95 345.287C157.278 345.298 126.588 346.348 123.754 364.659C150.224 399.669 223.186 387.038 223.186 387.038V373.415C223.186 373.415 177.45 365.109 165.824 346.331C165.421 345.681 164.715 345.285 163.95 345.287Z" fill="url(#paint5_linear_55_4404)"/>
<path d="M216.925 384.069C216.925 384.069 227.698 358.649 246.68 367.666C265.662 376.683 264.17 382.583 264.17 382.583L216.925 384.069Z" fill="url(#paint6_linear_55_4404)"/>
<path d="M214.505 389.343C214.656 391.266 216.295 392.73 218.223 392.663L316.589 389.231C318.118 389.178 319.446 388.165 319.902 386.705L322.757 377.568C323.459 375.324 321.857 373.02 319.509 372.895L283.639 370.99C283.313 370.973 282.987 371 282.668 371.07L217.318 385.543C215.565 385.932 214.365 387.552 214.505 389.343Z" fill="#383838"/>
<path d="M280.441 385.754L283.148 373.141L319.994 374.9L317.57 385.364L280.441 385.754Z" fill="#434343"/>
<path d="M261.552 250.002C259.467 267.041 250.086 336.271 247.401 356.052C247.023 358.834 249.232 361.28 252.039 361.2L411.177 356.646C413.259 356.586 415.035 355.12 415.486 353.086L440.242 241.601C440.896 238.653 438.55 235.898 435.536 236.075L265.8 246.016C263.605 246.145 261.819 247.82 261.552 250.002Z" fill="#282828"/>
<path d="M325.52 319.915L302 386.67L356.689 387.83L361.243 320.315C361.457 317.147 358.829 314.517 355.66 314.727L330.121 316.423C328.027 316.562 326.217 317.935 325.52 319.915Z" fill="#3B3B3B"/>
<path d="M279.828 387.622C279.226 389.458 280.594 391.348 282.527 391.348H368.173C369.742 391.348 371.014 390.076 371.014 388.507V384.834C371.014 383.217 369.667 381.927 368.052 381.996L282.406 385.669C281.224 385.72 280.197 386.498 279.828 387.622Z" fill="#19191F"/>
<path d="M259.147 320.43L258.019 320.288L265.838 258.625C266.322 254.8 269.467 251.856 273.315 251.624L419.993 242.766L420.062 243.901L273.384 252.76C270.081 252.959 267.382 255.485 266.967 258.768L259.147 320.43Z" fill="white"/>
<path d="M255.809 337.844L254.127 351.195L255.256 351.338L256.938 337.986L255.809 337.844Z" fill="white"/>
<path d="M250.232 190.87C232.559 192.205 222.287 173.932 222.186 173.747L223.369 173.095C223.467 173.272 233.332 190.792 250.13 189.523L250.232 190.87Z" fill="#575757"/>
<path d="M257.435 190.187C257.435 191.235 256.586 192.084 255.538 192.084H250.481C249.434 192.084 248.585 191.235 248.585 190.187C248.585 189.14 249.434 188.291 250.481 188.291H255.538C256.586 188.291 257.435 189.14 257.435 190.187Z" fill="black"/>
<path d="M223.403 153.476C223.403 153.476 229.746 120.942 248.433 117.873C248.433 117.873 243.141 115.208 237.624 118.098C232.107 120.988 218.162 136.823 218.731 154.278C222.524 155.644 223.403 153.476 223.403 153.476Z" fill="#767676"/>
<path d="M220.157 151.936C210.442 153.908 211.636 166.193 211.636 166.193C210.936 175.109 213.538 179.529 216.873 181.635C219.151 183.074 222.019 183.207 224.424 181.993C226.829 180.779 228.422 178.393 228.62 175.706C228.8 173.28 229.005 170.973 229.186 170.154C229.622 168.17 229.872 149.964 220.157 151.936Z" fill="#7B7B7B"/>
<path d="M221.049 155.043C219.033 154.692 217.044 155.764 216.232 157.643C210.426 171.094 217.555 179.843 221.055 180.026C224.744 180.218 224.669 162.472 223.886 157.922C223.557 156.016 222.346 155.268 221.049 155.043Z" fill="#636363"/>
<path d="M361.255 211.669C394.326 211.669 421.136 184.859 421.136 151.787C421.136 118.715 394.326 91.9054 361.255 91.9054C328.183 91.9054 301.373 118.715 301.373 151.787C301.373 184.859 328.183 211.669 361.255 211.669Z" fill="white"/>
<path d="M359.021 189.426C356.2 189.611 353.576 188.298 352.116 185.954L327.597 146.582C325.299 142.893 326.538 137.839 330.361 135.296C334.182 132.754 339.14 133.682 341.435 137.37L358.439 164.7L380.876 119.005C382.89 114.904 387.727 113.023 391.678 114.802C395.629 116.58 397.201 121.343 395.19 125.441L366.196 184.54C364.868 187.246 362.229 189.108 359.304 189.403C359.209 189.412 359.115 189.42 359.021 189.426Z" fill="#FFCF67"/>
<path d="M165.979 430.997V359.973C165.979 350.641 158.479 343.048 149.148 342.947C121.144 342.642 63.3854 342.627 16.1266 346.609C9.6777 347.152 4.66154 352.438 4.42774 358.905L0.0108206 427.572C-0.317422 436.654 6.86335 444.243 15.9502 444.415L149.713 446.957C158.646 447.127 165.979 439.932 165.979 430.997Z" fill="#FFCF67"/>
<path d="M149.758 367.657C149.877 373.701 149.698 383.29 149.551 389.485C149.475 392.708 146.645 395.164 143.443 394.789L120.396 392.088C117.326 391.728 115.163 388.898 115.621 385.841L118.45 366.969C118.851 364.29 121.153 362.308 123.862 362.308H144.287C147.263 362.308 149.7 364.682 149.758 367.657Z" fill="white"/>
<path opacity="0.37" d="M89.5297 403.422L70.3043 405.496C67.6141 405.787 65.3186 403.568 65.5168 400.869L69.7198 343.68C77.779 343.424 85.7284 343.238 93.399 343.107V399.113C93.399 401.327 91.7309 403.185 89.5297 403.422Z" fill="white"/>
<path d="M81.6496 393.51C81.5904 394.539 80.7381 395.332 79.7208 395.332C79.683 395.332 79.6452 395.331 79.6075 395.328C78.5411 395.266 77.7265 394.352 77.7896 393.286L80.6884 343.373C81.9884 343.341 83.2776 343.312 84.5669 343.283L81.6496 393.51Z" fill="white"/>
<path d="M139.101 385.673C139.438 385.673 139.723 385.411 139.744 385.068L140.741 369.347C140.764 368.992 140.494 368.686 140.138 368.664C139.764 368.635 139.477 368.912 139.454 369.267L138.457 384.988C138.435 385.343 138.704 385.649 139.06 385.672C139.074 385.673 139.088 385.673 139.101 385.673Z" fill="url(#paint7_linear_55_4404)"/>
<path d="M137.049 385.673C137.396 385.673 137.683 385.399 137.694 385.05L138.216 369.028C138.228 368.671 137.948 368.373 137.593 368.362C137.183 368.341 136.94 368.63 136.927 368.985L136.405 385.007C136.393 385.363 136.673 385.662 137.028 385.673C137.028 385.673 137.043 385.673 137.049 385.673Z" fill="url(#paint8_linear_55_4404)"/>
<path d="M134.265 385.671C133.909 385.655 133.635 385.353 133.652 384.998C133.908 379.616 134.395 369.35 134.402 369C134.405 368.647 134.693 368.361 135.047 368.361C135.403 368.361 135.692 368.65 135.692 369.006C135.692 369.272 135.065 382.425 134.939 385.058C134.922 385.404 134.638 385.673 134.295 385.673C134.286 385.673 134.275 385.673 134.265 385.671Z" fill="url(#paint9_linear_55_4404)"/>
<path d="M130 386.317C130.691 386.317 131.263 385.77 131.287 385.074C131.832 369.55 131.736 369.2 131.673 368.968C131.487 368.28 130.772 367.875 130.091 368.063C129.46 368.235 129.066 368.847 129.151 369.478C129.193 370.411 128.905 379.443 128.711 384.983C128.686 385.694 129.242 386.292 129.953 386.316C129.968 386.317 129.985 386.317 130 386.317Z" fill="url(#paint10_linear_55_4404)"/>
<path d="M127.205 385.673C127.561 385.673 127.85 385.385 127.85 385.028V369.307C127.85 368.951 127.561 368.662 127.205 368.662C126.849 368.662 126.561 368.951 126.561 369.307V385.028C126.561 385.385 126.849 385.673 127.205 385.673Z" fill="url(#paint11_linear_55_4404)"/>
<path d="M124.949 385.673C125.299 385.673 125.587 385.393 125.594 385.043C125.718 379.58 126.006 370.658 126.264 369.585C126.377 369.383 126.376 369.126 126.24 368.917C126.045 368.617 125.646 368.537 125.347 368.732C124.996 368.962 124.662 369.18 124.305 385.013C124.297 385.369 124.579 385.664 124.934 385.673H124.949Z" fill="url(#paint12_linear_55_4404)"/>
<path d="M142.569 387.104C143.25 387.104 143.819 386.57 143.856 385.882L144.716 369.374C144.752 368.662 144.206 368.057 143.495 368.019C142.82 367.971 142.178 368.529 142.14 369.24L141.28 385.748C141.243 386.46 141.79 387.065 142.501 387.103C142.524 387.104 142.547 387.104 142.569 387.104Z" fill="url(#paint13_linear_55_4404)"/>
<path d="M130.785 334.881V285.002C130.785 278.449 125.518 273.117 118.965 273.046C99.298 272.832 58.7357 272.821 25.547 275.617C21.0181 275.999 17.4954 279.711 17.3311 284.253L14.2293 332.476C13.9987 338.854 19.0416 344.183 25.423 344.305L119.361 346.09C125.635 346.209 130.785 341.156 130.785 334.881Z" fill="#FFCF67"/>
<path d="M119.394 290.399C119.478 294.643 119.352 301.378 119.248 305.728C119.195 307.992 117.208 309.717 114.959 309.453L98.7735 307.556C96.6173 307.303 95.0982 305.316 95.42 303.169L97.4066 289.916C97.6887 288.035 99.305 286.643 101.207 286.643H115.551C117.642 286.642 119.353 288.309 119.394 290.399Z" fill="white"/>
<path opacity="0.37" d="M77.0955 315.516L63.594 316.972C61.7049 317.176 60.0928 315.618 60.232 313.723L63.1836 273.56C68.8435 273.381 74.4262 273.25 79.8129 273.158V312.49C79.8129 314.044 78.6413 315.349 77.0955 315.516Z" fill="white"/>
<path d="M71.5629 308.555C71.5214 309.277 70.9228 309.834 70.2084 309.834C70.1818 309.834 70.1552 309.833 70.1287 309.832C69.3799 309.788 68.8079 309.146 68.852 308.398L70.8878 273.345C71.8007 273.322 72.7061 273.302 73.6114 273.282L71.5629 308.555Z" fill="white"/>
<path d="M111.908 303.051C112.145 303.051 112.345 302.867 112.36 302.627L113.06 291.586C113.076 291.337 112.887 291.122 112.636 291.106C112.374 291.086 112.172 291.28 112.156 291.529L111.456 302.57C111.44 302.82 111.629 303.034 111.88 303.05C111.889 303.051 111.899 303.051 111.908 303.051Z" fill="url(#paint14_linear_55_4404)"/>
<path d="M110.467 303.051C110.71 303.051 110.911 302.858 110.919 302.613L111.286 291.361C111.294 291.111 111.098 290.902 110.849 290.894C110.56 290.879 110.39 291.082 110.381 291.331L110.014 302.583C110.006 302.833 110.202 303.043 110.452 303.051C110.452 303.051 110.462 303.051 110.467 303.051Z" fill="url(#paint15_linear_55_4404)"/>
<path d="M108.512 303.05C108.262 303.039 108.069 302.826 108.082 302.577C108.261 298.797 108.603 291.588 108.609 291.342C108.61 291.094 108.813 290.894 109.061 290.894C109.312 290.894 109.514 291.096 109.514 291.346C109.514 291.533 109.074 300.77 108.985 302.62C108.974 302.863 108.774 303.051 108.533 303.051C108.526 303.051 108.519 303.051 108.512 303.05Z" fill="url(#paint16_linear_55_4404)"/>
<path d="M105.516 303.504C106.002 303.504 106.403 303.119 106.42 302.63C106.803 291.728 106.736 291.482 106.691 291.32C106.56 290.836 106.058 290.552 105.58 290.684C105.137 290.805 104.86 291.235 104.92 291.678C104.949 292.333 104.747 298.676 104.611 302.566C104.593 303.066 104.984 303.486 105.484 303.502C105.494 303.504 105.506 303.504 105.516 303.504Z" fill="url(#paint17_linear_55_4404)"/>
<path d="M103.554 303.051C103.804 303.051 104.007 302.849 104.007 302.598V291.558C104.007 291.307 103.804 291.105 103.554 291.105C103.304 291.105 103.102 291.307 103.102 291.558V302.598C103.102 302.848 103.304 303.051 103.554 303.051Z" fill="url(#paint18_linear_55_4404)"/>
<path d="M101.97 303.051C102.215 303.051 102.417 302.855 102.422 302.609C102.509 298.772 102.711 292.506 102.893 291.753C102.972 291.611 102.971 291.43 102.876 291.283C102.739 291.073 102.458 291.016 102.249 291.154C102.002 291.315 101.768 291.468 101.517 302.588C101.512 302.838 101.709 303.045 101.959 303.051H101.97Z" fill="url(#paint19_linear_55_4404)"/>
<path d="M114.344 304.056C114.822 304.056 115.222 303.681 115.248 303.198L115.852 291.604C115.877 291.105 115.493 290.68 114.994 290.653C114.52 290.62 114.069 291.011 114.043 291.511L113.439 303.104C113.413 303.603 113.797 304.029 114.296 304.055C114.312 304.056 114.328 304.056 114.344 304.056Z" fill="url(#paint20_linear_55_4404)"/>
<defs>
<linearGradient id="paint0_linear_55_4404" x1="499.1" y1="519.741" x2="181.996" y2="182.179" gradientUnits="userSpaceOnUse">
<stop stop-color="#DAE3FE"/>
<stop offset="1" stop-color="#E9EFFD"/>
</linearGradient>
<linearGradient id="paint1_linear_55_4404" x1="215.781" y1="343.786" x2="455.81" y2="49.8056" gradientUnits="userSpaceOnUse">
<stop stop-color="#725400"/>
<stop offset="1" stop-color="#E9605A"/>
</linearGradient>
<linearGradient id="paint2_linear_55_4404" x1="211.21" y1="274.672" x2="238.017" y2="202.083" gradientUnits="userSpaceOnUse">
<stop stop-color="#FEBBBA"/>
<stop offset="1" stop-color="#FF928E"/>
</linearGradient>
<linearGradient id="paint3_linear_55_4404" x1="262.171" y1="164.466" x2="183.622" y2="197.326" gradientUnits="userSpaceOnUse">
<stop stop-color="#FEBBBA"/>
<stop offset="1" stop-color="#FF928E"/>
</linearGradient>
<linearGradient id="paint4_linear_55_4404" x1="256.845" y1="151.732" x2="178.296" y2="184.592" gradientUnits="userSpaceOnUse">
<stop stop-color="#FEBBBA"/>
<stop offset="1" stop-color="#FF928E"/>
</linearGradient>
<linearGradient id="paint5_linear_55_4404" x1="156.644" y1="324.758" x2="197.187" y2="431.451" gradientUnits="userSpaceOnUse">
<stop stop-color="#FEBBBA"/>
<stop offset="1" stop-color="#FF928E"/>
</linearGradient>
<linearGradient id="paint6_linear_55_4404" x1="209.111" y1="300.08" x2="252.348" y2="413.863" gradientUnits="userSpaceOnUse">
<stop stop-color="#FEBBBA"/>
<stop offset="1" stop-color="#FF928E"/>
</linearGradient>
<linearGradient id="paint7_linear_55_4404" x1="131.806" y1="365.843" x2="173.061" y2="425.791" gradientUnits="userSpaceOnUse">
<stop stop-color="#09005D"/>
<stop offset="1" stop-color="#1A0F91"/>
</linearGradient>
<linearGradient id="paint8_linear_55_4404" x1="130.323" y1="366.863" x2="171.579" y2="426.812" gradientUnits="userSpaceOnUse">
<stop stop-color="#09005D"/>
<stop offset="1" stop-color="#1A0F91"/>
</linearGradient>
<linearGradient id="paint9_linear_55_4404" x1="128.532" y1="368.095" x2="169.787" y2="428.044" gradientUnits="userSpaceOnUse">
<stop stop-color="#09005D"/>
<stop offset="1" stop-color="#1A0F91"/>
</linearGradient>
<linearGradient id="paint10_linear_55_4404" x1="125.437" y1="370.226" x2="166.692" y2="430.175" gradientUnits="userSpaceOnUse">
<stop stop-color="#09005D"/>
<stop offset="1" stop-color="#1A0F91"/>
</linearGradient>
<linearGradient id="paint11_linear_55_4404" x1="123.395" y1="371.631" x2="164.65" y2="431.579" gradientUnits="userSpaceOnUse">
<stop stop-color="#09005D"/>
<stop offset="1" stop-color="#1A0F91"/>
</linearGradient>
<linearGradient id="paint12_linear_55_4404" x1="122.128" y1="372.503" x2="163.383" y2="432.451" gradientUnits="userSpaceOnUse">
<stop stop-color="#09005D"/>
<stop offset="1" stop-color="#1A0F91"/>
</linearGradient>
<linearGradient id="paint13_linear_55_4404" x1="133.928" y1="364.382" x2="175.183" y2="424.331" gradientUnits="userSpaceOnUse">
<stop stop-color="#09005D"/>
<stop offset="1" stop-color="#1A0F91"/>
</linearGradient>
<linearGradient id="paint14_linear_55_4404" x1="106.785" y1="289.125" x2="135.757" y2="331.225" gradientUnits="userSpaceOnUse">
<stop stop-color="#09005D"/>
<stop offset="1" stop-color="#1A0F91"/>
</linearGradient>
<linearGradient id="paint15_linear_55_4404" x1="105.743" y1="289.842" x2="134.716" y2="331.942" gradientUnits="userSpaceOnUse">
<stop stop-color="#09005D"/>
<stop offset="1" stop-color="#1A0F91"/>
</linearGradient>
<linearGradient id="paint16_linear_55_4404" x1="104.486" y1="290.707" x2="133.458" y2="332.807" gradientUnits="userSpaceOnUse">
<stop stop-color="#09005D"/>
<stop offset="1" stop-color="#1A0F91"/>
</linearGradient>
<linearGradient id="paint17_linear_55_4404" x1="102.312" y1="292.203" x2="131.284" y2="334.303" gradientUnits="userSpaceOnUse">
<stop stop-color="#09005D"/>
<stop offset="1" stop-color="#1A0F91"/>
</linearGradient>
<linearGradient id="paint18_linear_55_4404" x1="100.878" y1="293.189" x2="129.851" y2="335.29" gradientUnits="userSpaceOnUse">
<stop stop-color="#09005D"/>
<stop offset="1" stop-color="#1A0F91"/>
</linearGradient>
<linearGradient id="paint19_linear_55_4404" x1="99.9881" y1="293.802" x2="128.961" y2="335.902" gradientUnits="userSpaceOnUse">
<stop stop-color="#09005D"/>
<stop offset="1" stop-color="#1A0F91"/>
</linearGradient>
<linearGradient id="paint20_linear_55_4404" x1="108.276" y1="288.099" x2="137.248" y2="330.2" gradientUnits="userSpaceOnUse">
<stop stop-color="#09005D"/>
<stop offset="1" stop-color="#1A0F91"/>
</linearGradient>
</defs>
</svg>
