<svg width="51" height="51" viewBox="0 0 51 51" fill="none" xmlns="http://www.w3.org/2000/svg">
<rect width="51" height="51" rx="25.5" fill="#F3F3F3"/>
<path d="M21.8538 36.4375V34.25H14.5622C13.7601 34.25 13.0309 33.9292 12.5059 33.3896C11.9663 32.8646 11.6455 32.1354 11.6455 31.3334C11.6455 29.8313 12.8122 28.5771 14.2851 28.4313C14.3726 28.4167 14.4601 28.4167 14.5622 28.4167H36.4372C36.5393 28.4167 36.6268 28.4167 36.7143 28.4313C37.4143 28.4896 38.0268 28.7959 38.4934 29.2771C39.0913 29.8604 39.4122 30.6917 39.3393 31.5959C39.208 33.1271 37.8226 34.25 36.2768 34.25H29.1455V36.4375C29.1455 38.45 27.5122 40.0834 25.4997 40.0834C23.4872 40.0834 21.8538 38.45 21.8538 36.4375Z" fill="#FFCF67"/>
<path d="M33.0684 10.9167H27.3225C26.9142 10.9167 26.5934 11.2375 26.5934 11.6459V13.8334C26.5934 14.4313 26.0975 14.9271 25.4996 14.9271C25.3684 14.9271 25.2517 14.8979 25.135 14.8542C24.7121 14.7084 24.4059 14.3 24.4059 13.8334V11.6459C24.4059 11.2375 24.085 10.9167 23.6767 10.9167H21.4746C21.0663 10.9167 20.7455 11.2375 20.7455 11.6459V18.2084C20.7455 18.8063 20.2496 19.3021 19.6517 19.3021C19.0538 19.3021 18.558 18.8063 18.558 18.2084V14.9271V11.6459C18.558 11.2521 18.2663 10.9459 17.8725 10.9167H17.8288C15.2913 10.975 13.3225 13.1771 13.585 15.7292L14.1246 25.5729C14.1684 26.3459 14.81 26.9584 15.583 26.9584H35.4163C36.1892 26.9584 36.8309 26.3459 36.8746 25.5729L37.4142 15.7292C37.6767 13.1479 35.6496 10.9167 33.0684 10.9167Z" fill="#FFCF67"/>
</svg>
