<svg width="51" height="51" viewBox="0 0 51 51" fill="none" xmlns="http://www.w3.org/2000/svg">
<rect width="51" height="51" rx="25.5" fill="#F3F3F3"/>
<path d="M39.6592 20.3458C36.4933 20.3458 35.1989 17.9726 36.7731 15.0618C37.6827 13.3746 37.1404 11.224 35.5487 10.2599L32.5227 8.42439C31.1409 7.553 29.3568 8.07212 28.5347 9.53681L28.3423 9.88907C26.7681 12.7999 24.1794 12.7999 22.5877 9.88907L22.3953 9.53681C21.6082 8.07212 19.8241 7.553 18.4423 8.42439L15.4163 10.2599C13.8246 11.224 13.2824 13.3932 14.1919 15.0804C15.7836 17.9726 14.4893 20.3458 11.3233 20.3458C9.50425 20.3458 8 21.9217 8 23.8685V27.1315C8 29.0597 9.48676 30.6542 11.3233 30.6542C14.4893 30.6542 15.7836 33.0274 14.1919 35.9382C13.2824 37.6254 13.8246 39.776 15.4163 40.7401L18.4423 42.5756C19.8241 43.447 21.6082 42.9279 22.4303 41.4632L22.6227 41.1109C24.1969 38.2001 26.7856 38.2001 28.3773 41.1109L28.5697 41.4632C29.3918 42.9279 31.1759 43.447 32.5577 42.5756L35.5837 40.7401C37.1754 39.776 37.7176 37.6068 36.8081 35.9382C35.2164 33.0274 36.5107 30.6542 39.6767 30.6542C41.4958 30.6542 43 29.0783 43 27.1315V23.8685C42.9825 21.9403 41.4958 20.3458 39.6592 20.3458ZM25.4913 31.5256C22.3603 31.5256 19.8066 28.8187 19.8066 25.5C19.8066 22.1813 22.3603 19.4744 25.4913 19.4744C28.6222 19.4744 31.1759 22.1813 31.1759 25.5C31.1759 28.8187 28.6222 31.5256 25.4913 31.5256Z" fill="#FFCF67"/>
</svg>
