<svg width="51" height="51" viewBox="0 0 51 51" fill="none" xmlns="http://www.w3.org/2000/svg">
<rect width="51" height="51" rx="25.5" fill="#F3F3F3"/>
<path d="M42 20.9165V26.4165C42 27.883 40.7165 29.1665 39.25 29.1665C37.7835 29.1665 36.5 27.883 36.5 26.4165V20.9165C36.5 20.183 36.8665 19.45 37.2335 19.083C35.0335 14.3165 31 10.833 25.6835 10.833H25.5C20 10.833 15.9665 14.3165 13.7665 19.083C14.133 19.4496 14.5 20.183 14.5 20.9165V26.4165C14.5 27.883 13.2165 29.1665 11.75 29.1665C10.2835 29.1665 9 27.883 9 26.4165V20.9165C9 19.45 10.2835 18.1665 11.75 18.1665H11.9335C14.1335 12.85 19.45 9 25.5 9C31.55 9 36.8665 12.85 39.0665 18.1665H39.25C40.7165 18.1665 42 19.45 42 20.9165ZM42 42H9C9 37.7835 16.3335 32.8335 25.5 32.8335C34.6665 32.8335 42 37.7835 42 42ZM39.4335 40.1665C37.6 37.6 32.1 34.6665 25.5 34.6665C18.9 34.6665 13.4 37.6 11.5665 40.1665H39.4335ZM25.5 32.8335C20.3665 32.8335 16.3335 28.8 16.3335 23.667C16.3335 18.5339 20.3665 14.5 25.5 14.5C30.6335 14.5 34.6665 18.5335 34.6665 23.6665C34.6665 28.7996 30.6335 32.8335 25.5 32.8335ZM32.8335 23.6665C32.8335 19.633 29.5335 16.333 25.5 16.333C21.4665 16.333 18.1665 19.633 18.1665 23.6665C18.1665 27.7 21.4665 31 25.5 31C29.5335 31 32.8335 27.7 32.8335 23.6665Z" fill="#FFCF67"/>
</svg>
