<svg width="63" height="216" viewBox="0 0 63 216" fill="none" xmlns="http://www.w3.org/2000/svg">
<path d="M35.2932 30.9836C35.8608 20.7706 36.5212 10.4773 40.77 0.895691C41.3141 11.0768 43.6469 21.1901 47.67 30.8063C43.7341 30.0906 39.1724 30.0726 35.2932 30.9836Z" fill="#13596B"/>
<path d="M23.6587 92.9869C24.1668 92.1438 24.6555 91.291 25.1082 90.4216C28.2412 84.4187 28.3132 77.7194 26.836 71.207C26.7654 70.8969 26.6823 70.5896 26.6034 70.2822C31.1429 72.3603 35.9442 73.8679 40.863 74.7152C44.5082 75.3423 48.3722 75.5763 51.861 74.4798C54.8029 82.7241 57.5178 91.0985 59.2483 99.3498C60.097 103.395 60.8445 107.483 61.3859 111.595C60.3849 114.775 58.6295 117.718 56.2676 120.072C44.5193 117.246 30.4701 102.605 23.6587 92.9869Z" fill="#F0BE2C"/>
<path d="M40.8657 74.7136C35.9454 73.8664 31.1442 72.3601 26.6061 70.2807C25.601 66.3434 23.9659 62.5902 22.5926 58.7594C19.1897 49.2692 19.677 38.915 21.0919 29.0523C22.4901 19.3114 24.6914 9.48474 27.3177 0C28.8959 10.188 31.907 20.2266 35.9247 29.721C41.0166 28.1164 46.6789 28.3919 51.5909 30.4838C56.5029 32.5757 60.6257 36.4659 63 41.2478C63 41.2478 62.6096 46.528 61.3235 48.7403C58.4978 53.5969 50.8225 55.3399 45.4786 57.0787C47.5401 62.748 49.7593 68.5792 51.8636 74.4783C48.3735 75.5761 44.5109 75.3422 40.8657 74.7136ZM0.0443442 159.264C0.476287 175.583 4.05089 191.866 7.79716 207.756H45.325C45.5492 206.337 44.821 204.738 44.0637 203.517C43.4214 203.56 42.2515 203.302 41.6091 203.345C43.4698 185.831 47.9775 168.6 54.9302 152.418C58.5449 144.003 61.7526 136.005 62.1693 126.743C62.3978 121.678 62.0503 116.618 61.3885 111.594C60.3876 114.774 58.6321 117.717 56.2703 120.07C44.5206 117.246 30.47 102.604 23.66 92.9868C20.3221 98.5189 15.9625 103.55 12.5804 109.048C8.60152 115.513 5.14736 122.395 3.20362 129.764C0.670107 139.362 -0.218698 149.355 0.0443442 159.264Z" fill="#297487"/>
<path d="M23.6587 92.9866C30.4687 102.604 44.5193 117.246 56.269 120.07C58.6308 117.717 60.3863 114.773 61.3872 111.593C61.3208 111.091 61.2433 110.59 61.1699 110.087C60.1593 111.944 58.8814 113.651 57.3973 115.154C56.7896 102.485 54.724 89.8841 51.0248 77.7841C51.6298 77.5709 52.2071 77.2885 52.7207 76.9203C52.4355 76.1048 52.1503 75.2908 51.861 74.4781C48.3722 75.5746 44.5096 75.3406 40.863 74.7135C35.9428 73.8662 31.1416 72.3599 26.6034 70.2805C26.6823 70.5879 26.7654 70.8952 26.836 71.2053C26.8678 71.3479 26.8955 71.4905 26.926 71.6317C27.2818 71.8145 27.6431 71.9861 28.0017 72.1633C28.9458 75.8362 29.1854 79.6877 28.7382 83.4299C28.3284 86.8023 27.3427 90.1222 25.6551 92.9907C25.2494 92.5256 24.8438 92.0604 24.4451 91.5911C24.1848 92.0576 23.9356 92.5283 23.6587 92.9866ZM29.3501 72.814C30.4992 73.3498 31.6635 73.8537 32.8416 74.3245C34.1084 82.5507 33.5283 91.0193 31.2039 98.9466C29.7765 97.5178 28.3879 96.0462 27.034 94.5441C28.9874 91.1674 29.9828 87.3699 30.2998 83.5891C30.5906 79.9646 30.2721 76.3111 29.3501 72.814ZM44.0375 77.7218C46.0547 88.9177 47.4183 100.281 46.8189 111.553C44.4446 110.079 42.1381 108.448 39.8995 106.691C41.5982 96.7038 41.2839 86.549 39.7569 76.6711C41.1718 77.067 42.5991 77.4186 44.0375 77.7218ZM49.3579 78.1649C52.675 90.3894 54.3059 103.011 54.4734 115.633C52.6889 114.837 50.9334 113.952 49.2125 112.978C49.6445 101.151 47.9306 89.4411 45.541 78.0057C46.8092 78.2175 48.0898 78.3185 49.3579 78.1649ZM32.7738 100.482L32.8555 100.507C35.173 92.1338 35.5634 83.2873 34.0655 74.7952C35.4541 75.3199 36.8579 75.7989 38.2769 76.2308C39.4551 85.782 39.4565 95.5187 37.6844 104.895C36.0051 103.487 34.3673 102.013 32.7738 100.482Z" fill="#C47A2E"/>
<path d="M37.1583 37.8295C38.7144 36.7386 40.629 36.171 42.5285 36.2374C44.4279 36.3039 46.2983 37.0044 47.7741 38.2019C46.9587 39.4728 46.1391 40.914 44.6591 41.2186C43.9282 41.3695 43.1695 41.2283 42.451 41.0303C40.5931 40.5195 38.6618 39.0326 37.1583 37.8295Z" fill="#F0BE2C"/>
<path d="M62.9848 41.4138C62.9252 42.1102 62.6428 45.0452 61.9534 47.2298C59.6331 46.0254 57.645 43.9612 56.6593 41.5703C58.7387 41.1619 60.886 41.119 62.9848 41.4138Z" fill="#F0BE2C"/>
<path d="M40.5957 57.429C42.772 62.7161 44.6355 68.4297 45.9064 74.0048C47.3157 74.1377 48.822 73.8774 50.1787 73.469C48.3527 68.2677 46.5266 63.0677 44.7019 57.8664C43.467 58.0907 41.742 57.9384 40.5957 57.429Z" fill="url(#paint0_linear_52_3996)"/>
<path d="M56.8767 121.577C54.7031 121.509 52.189 119.859 50.1898 119.006C53.7271 125.924 57.0511 134.932 53.9361 142.05C45.6392 161.01 40.7882 181.467 39.3968 202.116C39.7111 202.171 40.1056 202.097 40.4213 202.153C41.9982 186.277 45.9064 172.318 52.0201 155.613C53.8946 150.492 56.2606 145.57 58.1143 140.442C60.7669 133.102 61.6031 125.114 60.5274 117.383C59.6164 118.625 58.0451 120.574 56.8767 121.577Z" fill="url(#paint1_linear_52_3996)"/>
<path d="M61.8646 40.7591C60.1978 40.6401 58.5226 40.6207 56.853 40.701C54.3029 37.7258 50.4707 35.8319 46.7369 34.6441C43.0031 33.4563 39.0838 32.9828 35.188 32.5605C35.1188 31.9403 35.1908 31.2813 35.1202 30.6597C42.0991 28.1179 50.3475 29.3514 56.1746 33.956C58.3177 35.6492 60.2185 38.58 61.8646 40.7591Z" fill="url(#paint2_linear_52_3996)"/>
<path d="M42.0064 27.5736C43.161 27.6857 44.3156 27.5736 45.4702 27.4559C42.5311 20.034 40.9307 12.14 40.7562 4.21686C39.8785 7.94513 39.8882 12.1054 40.2703 15.907C40.651 19.7073 41.2062 23.8301 42.0064 27.5736Z" fill="url(#paint3_linear_52_3996)"/>
<path d="M31.0694 31.5319C32.3805 31.1512 33.6639 30.488 34.8434 29.8C31.1774 21.5224 28.655 12.7382 27.3716 3.77679C27.1543 13.0802 28.4847 22.5926 31.0694 31.5319Z" fill="url(#paint4_linear_52_3996)"/>
<path d="M3.57198 215.344H49.8937L51.9593 207.755H1.5078L3.57198 215.344Z" fill="#13596B"/>
<path d="M51.9592 207.755H30.4991L31.8489 215.344H49.8936L51.9592 207.755Z" fill="#297487"/>
<path d="M35.4707 205.153C36.3096 205.438 37.2704 205.533 38.1551 205.506C38.4735 206.197 38.6742 206.906 38.7545 207.662H40.3646C40.5335 206.462 40.085 205.175 39.3664 204.199C38.4306 204.35 37.2981 204.31 36.3622 204.158C32.4277 180.487 43.978 156.524 41.4196 132.664C40.9585 144.735 38.8044 157.032 36.7333 168.932C34.6635 180.833 33.2473 193.28 35.4707 205.153Z" fill="url(#paint5_linear_52_3996)"/>
<path d="M45.9479 76.8871C48.4232 89.5339 49.8824 102.534 49.7315 115.419C51.8926 116.294 54.1077 117.265 56.2688 118.14C57.8734 116.6 59.0778 114.095 60.0317 112.086C58.4396 99.8105 55.4257 87.7189 51.0689 76.1326C49.5668 76.4648 47.45 76.5548 45.9479 76.8871Z" fill="url(#paint6_linear_52_3996)"/>
<path d="M21.4725 35.731C20.6778 47.1622 23.1061 58.7997 28.4071 68.9587C28.8529 69.8129 30.3674 70.2282 31.1676 70.764C30.1473 66.8668 29.9313 62.2664 29.912 58.2377C25.6091 51.933 22.3294 43.3176 21.4725 35.731Z" fill="#13596B"/>
<path d="M9.5664 205.707C4.40801 187.434 0.980151 168.419 2.49472 149.494C4.00929 130.569 10.8179 111.638 23.959 97.9333C24.8173 99.1641 26.2945 100.341 27.4782 101.266C21.3853 106.257 17.2098 113.774 14.351 121.113C4.12973 147.348 5.00054 177.026 9.5664 205.707Z" fill="#13596B"/>
<path d="M26.0593 207.755C23.6933 195.323 23.8733 181.098 26.6145 168.977C26.1659 181.729 26.9509 195.684 29.0552 207.755H26.0593Z" fill="#13596B"/>
<path d="M26.4456 54.5977C33.6073 57.7002 41.9042 58.0948 49.3275 55.6886C45.7349 55.9088 42.2364 55.6499 38.6854 55.0601C35.8542 54.5894 33.0438 53.8557 30.4826 52.564C27.92 51.2723 25.608 49.3964 24.0907 46.9612C24.2111 49.5695 25.1151 52.3508 26.4456 54.5977Z" fill="#13596B"/>
<path d="M40.0031 57.0844C36.0242 57.5523 32.0135 57.7447 28.007 57.6631C27.276 56.3589 26.707 54.7613 26.7139 53.2661C31.0624 55.1946 35.2794 56.532 40.0031 57.0844Z" fill="#13596B"/>
<defs>
<linearGradient id="paint0_linear_52_3996" x1="65.9891" y1="99.5823" x2="38.9046" y2="55.527" gradientUnits="userSpaceOnUse">
<stop offset="0.0391" stop-color="#BDB58F"/>
<stop offset="0.9875" stop-color="#020202"/>
<stop offset="1"/>
</linearGradient>
<linearGradient id="paint1_linear_52_3996" x1="64.1257" y1="95.9347" x2="34.5553" y2="197.502" gradientUnits="userSpaceOnUse">
<stop offset="0.0391" stop-color="#BDB58F"/>
<stop offset="0.9875" stop-color="#020202"/>
<stop offset="1"/>
</linearGradient>
<linearGradient id="paint2_linear_52_3996" x1="80.1509" y1="28.0276" x2="35.2384" y2="38.8271" gradientUnits="userSpaceOnUse">
<stop offset="0.0391" stop-color="#BDB58F"/>
<stop offset="0.9875" stop-color="#020202"/>
<stop offset="1"/>
</linearGradient>
<linearGradient id="paint3_linear_52_3996" x1="50.702" y1="-12.0252" x2="37.8983" y2="34.9759" gradientUnits="userSpaceOnUse">
<stop offset="0.0391" stop-color="#BDB58F"/>
<stop offset="0.9875" stop-color="#020202"/>
<stop offset="1"/>
</linearGradient>
<linearGradient id="paint4_linear_52_3996" x1="39.3507" y1="-12.3654" x2="25.2941" y2="37.3468" gradientUnits="userSpaceOnUse">
<stop offset="0.0391" stop-color="#BDB58F"/>
<stop offset="0.9875" stop-color="#020202"/>
<stop offset="1"/>
</linearGradient>
<linearGradient id="paint5_linear_52_3996" x1="50.8282" y1="119.906" x2="33.2146" y2="209.002" gradientUnits="userSpaceOnUse">
<stop offset="0.0391" stop-color="#BDB58F"/>
<stop offset="0.9875" stop-color="#020202"/>
<stop offset="1"/>
</linearGradient>
<linearGradient id="paint6_linear_52_3996" x1="58.9561" y1="76.9146" x2="35.5572" y2="145.826" gradientUnits="userSpaceOnUse">
<stop offset="0.0391" stop-color="#BDB58F"/>
<stop offset="0.9875" stop-color="#020202"/>
<stop offset="1"/>
</linearGradient>
</defs>
</svg>
