<svg width="63" height="216" viewBox="0 0 63 216" fill="none" xmlns="http://www.w3.org/2000/svg">
<path d="M27.7068 30.9836C27.1392 20.7706 26.4788 10.4773 22.23 0.895691C21.6859 11.0768 19.3531 21.1901 15.33 30.8063C19.2659 30.0906 23.8276 30.0726 27.7068 30.9836Z" fill="#13596B"/>
<path d="M39.3413 92.9869C38.8332 92.1438 38.3445 91.291 37.8918 90.4216C34.7588 84.4187 34.6869 77.7194 36.164 71.207C36.2346 70.8969 36.3177 70.5896 36.3966 70.2822C31.8571 72.3603 27.0559 73.8679 22.137 74.7152C18.4918 75.3423 14.6278 75.5763 11.139 74.4798C8.19713 82.7241 5.48226 91.0985 3.75172 99.3498C2.90306 103.395 2.15547 107.483 1.61416 111.595C2.6151 114.775 4.37056 117.718 6.7324 120.072C18.4807 117.246 32.5299 102.605 39.3413 92.9869Z" fill="#F0BE2C"/>
<path d="M22.1343 74.7136C27.0546 73.8664 31.8558 72.3601 36.3939 70.2807C37.399 66.3434 39.0341 62.5902 40.4074 58.7594C43.8103 49.2692 43.323 38.915 41.9081 29.0523C40.5099 19.3114 38.3086 9.48474 35.6823 0C34.1041 10.188 31.093 20.2266 27.0753 29.721C21.9834 28.1164 16.3211 28.3919 11.4091 30.4838C6.49714 32.5757 2.3743 36.4659 0 41.2478C0 41.2478 0.390408 46.528 1.67655 48.7403C4.50217 53.5969 12.1775 55.3399 17.5214 57.0787C15.4599 62.748 13.2407 68.5792 11.1364 74.4783C14.6265 75.5761 18.4891 75.3422 22.1343 74.7136ZM62.9557 159.264C62.5237 175.583 58.9491 191.866 55.2028 207.756H17.675C17.4508 206.337 18.179 204.738 18.9363 203.517C19.5786 203.56 20.7485 203.302 21.3909 203.345C19.5302 185.831 15.0225 168.6 8.06985 152.418C4.4551 144.003 1.24737 136.005 0.830658 126.743C0.602226 121.678 0.949722 116.618 1.61148 111.594C2.61243 114.774 4.36789 117.717 6.72972 120.07C18.4794 117.246 32.53 102.604 39.34 92.9868C42.6779 98.5189 47.0375 103.55 50.4196 109.048C54.3985 115.513 57.8526 122.395 59.7964 129.764C62.3299 139.362 63.2187 149.355 62.9557 159.264Z" fill="#297487"/>
<path d="M39.3413 92.9866C32.5313 102.604 18.4807 117.246 6.73101 120.07C4.36917 117.717 2.61372 114.773 1.61277 111.593C1.67923 111.091 1.75675 110.59 1.83012 110.087C2.84076 111.944 4.11859 113.651 5.6027 115.154C6.21046 102.485 8.27604 89.8841 11.9752 77.7841C11.3702 77.5709 10.7929 77.2885 10.2793 76.9203C10.5645 76.1048 10.8497 75.2908 11.139 74.4781C14.6278 75.5746 18.4904 75.3406 22.137 74.7135C27.0572 73.8662 31.8585 72.3599 36.3966 70.2805C36.3177 70.5879 36.2346 70.8952 36.164 71.2053C36.1322 71.3479 36.1045 71.4905 36.0741 71.6317C35.7183 71.8145 35.3569 71.9861 34.9983 72.1633C34.0542 75.8362 33.8147 79.6877 34.2618 83.4299C34.6716 86.8023 35.6573 90.1222 37.345 92.9907C37.7506 92.5256 38.1562 92.0604 38.555 91.5911C38.8152 92.0576 39.0644 92.5283 39.3413 92.9866ZM33.6499 72.814C32.5008 73.3498 31.3365 73.8537 30.1584 74.3245C28.8916 82.5507 29.4717 91.0193 31.7962 98.9466C33.2235 97.5178 34.6121 96.0462 35.9661 94.5441C34.0126 91.1674 33.0172 87.3699 32.7002 83.5891C32.4095 79.9646 32.7279 76.3111 33.6499 72.814ZM18.9625 77.7218C16.9454 88.9177 15.5817 100.281 16.1811 111.553C18.5554 110.079 20.8619 108.448 23.1005 106.691C21.4018 96.7038 21.7161 86.549 23.2431 76.6711C21.8282 77.067 20.4009 77.4186 18.9625 77.7218ZM13.6421 78.1649C10.325 90.3894 8.69414 103.011 8.52662 115.633C10.3112 114.837 12.0666 113.952 13.7875 112.978C13.3555 101.151 15.0694 89.4411 17.459 78.0057C16.1908 78.2175 14.9102 78.3185 13.6421 78.1649ZM30.2262 100.482L30.1445 100.507C27.827 92.1338 27.4366 83.2873 28.9345 74.7952C27.5459 75.3199 26.1421 75.7989 24.7231 76.2308C23.5449 85.782 23.5436 95.5187 25.3156 104.895C26.9949 103.487 28.6327 102.013 30.2262 100.482Z" fill="#C47A2E"/>
<path d="M25.8417 37.8295C24.2856 36.7386 22.3709 36.171 20.4715 36.2374C18.572 36.3039 16.7017 37.0044 15.2259 38.2019C16.0413 39.4728 16.8609 40.914 18.3408 41.2186C19.0718 41.3695 19.8305 41.2283 20.549 41.0303C22.4069 40.5195 24.3382 39.0326 25.8417 37.8295Z" fill="#F0BE2C"/>
<path d="M0.0152283 41.4138C0.074759 42.1102 0.357187 45.0452 1.04663 47.2298C3.36694 46.0254 5.35498 43.9612 6.3407 41.5703C4.26128 41.1619 2.11403 41.119 0.0152283 41.4138Z" fill="#F0BE2C"/>
<path d="M22.4043 57.429C20.228 62.7161 18.3645 68.4297 17.0936 74.0048C15.6843 74.1377 14.178 73.8774 12.8213 73.469C14.6473 68.2677 16.4734 63.0677 18.2981 57.8664C19.533 58.0907 21.258 57.9384 22.4043 57.429Z" fill="url(#paint0_linear_52_4023)"/>
<path d="M6.12331 121.577C8.29687 121.509 10.811 119.859 12.8101 119.006C9.2729 125.924 5.94888 134.932 9.06385 142.05C17.3607 161.01 22.2118 181.467 23.6031 202.116C23.2889 202.171 22.8943 202.097 22.5787 202.153C21.0018 186.277 17.0936 172.318 10.9799 155.613C9.10538 150.492 6.73939 145.57 4.88563 140.442C2.23306 133.102 1.39686 125.114 2.47256 117.383C3.38352 118.625 4.95485 120.574 6.12331 121.577Z" fill="url(#paint1_linear_52_4023)"/>
<path d="M1.13543 40.7591C2.80229 40.6401 4.47744 40.6207 6.14707 40.701C8.69719 37.7258 12.5293 35.8319 16.2631 34.6441C19.9969 33.4563 23.9163 32.9828 27.812 32.5605C27.8813 31.9403 27.8093 31.2813 27.8799 30.6597C20.901 28.1179 12.6525 29.3514 6.82545 33.956C4.68235 35.6492 2.78152 38.58 1.13543 40.7591Z" fill="url(#paint2_linear_52_4023)"/>
<path d="M20.9937 27.5736C19.8391 27.6857 18.6844 27.5736 17.5298 27.4559C20.469 20.034 22.0694 12.14 22.2438 4.21686C23.1215 7.94513 23.1119 12.1054 22.7298 15.907C22.349 19.7073 21.7939 23.8301 20.9937 27.5736Z" fill="url(#paint3_linear_52_4023)"/>
<path d="M31.9306 31.5319C30.6195 31.1512 29.3361 30.488 28.1566 29.8C31.8226 21.5224 34.345 12.7382 35.6284 3.77679C35.8457 13.0802 34.5153 22.5926 31.9306 31.5319Z" fill="url(#paint4_linear_52_4023)"/>
<path d="M59.428 215.344H13.1063L11.0407 207.755H61.4922L59.428 215.344Z" fill="#13596B"/>
<path d="M11.0409 207.755H32.501L31.1512 215.344H13.1065L11.0409 207.755Z" fill="#297487"/>
<path d="M27.5294 205.153C26.6904 205.438 25.7296 205.533 24.845 205.506C24.5266 206.197 24.3258 206.906 24.2455 207.662H22.6354C22.4665 206.462 22.9151 205.175 23.6336 204.199C24.5695 204.35 25.7019 204.31 26.6378 204.158C30.5724 180.487 19.0221 156.524 21.5805 132.664C22.0415 144.735 24.1957 157.032 26.2668 168.932C28.3365 180.833 29.7528 193.28 27.5294 205.153Z" fill="url(#paint5_linear_52_4023)"/>
<path d="M17.0521 76.8871C14.5768 89.5339 13.1176 102.534 13.2685 115.419C11.1074 116.294 8.89228 117.265 6.73119 118.14C5.12663 116.6 3.92217 114.095 2.9683 112.086C4.56039 99.8105 7.5743 87.7189 11.9311 76.1326C13.4332 76.4648 15.55 76.5548 17.0521 76.8871Z" fill="url(#paint6_linear_52_4023)"/>
<path d="M41.5276 35.731C42.3222 47.1622 39.8939 58.7997 34.5929 68.9587C34.1472 69.8129 32.6326 70.2282 31.8324 70.764C32.8527 66.8668 33.0687 62.2664 33.0881 58.2377C37.3909 51.933 40.6706 43.3176 41.5276 35.731Z" fill="#13596B"/>
<path d="M53.4336 205.707C58.5919 187.434 62.0198 168.419 60.5052 149.494C58.9907 130.569 52.182 111.638 39.041 97.9333C38.1826 99.1641 36.7055 100.341 35.5218 101.266C41.6147 106.257 45.7901 113.774 48.649 121.113C58.8702 147.348 57.9994 177.026 53.4336 205.707Z" fill="#13596B"/>
<path d="M36.9407 207.755C39.3067 195.323 39.1267 181.098 36.3856 168.977C36.8341 181.729 36.0492 195.684 33.9448 207.755H36.9407Z" fill="#13596B"/>
<path d="M36.5544 54.5977C29.3927 57.7002 21.0958 58.0948 13.6725 55.6886C17.2651 55.9088 20.7635 55.6499 24.3146 55.0601C27.1458 54.5894 29.9562 53.8557 32.5174 52.564C35.08 51.2723 37.392 49.3964 38.9093 46.9612C38.7889 49.5695 37.8848 52.3508 36.5544 54.5977Z" fill="#13596B"/>
<path d="M22.9969 57.0844C26.9758 57.5523 30.9865 57.7447 34.993 57.6631C35.724 56.3589 36.293 54.7613 36.2861 53.2661C31.9376 55.1946 27.7206 56.532 22.9969 57.0844Z" fill="#13596B"/>
<defs>
<linearGradient id="paint0_linear_52_4023" x1="-2.98911" y1="99.5823" x2="24.0954" y2="55.527" gradientUnits="userSpaceOnUse">
<stop offset="0.0391" stop-color="#BDB58F"/>
<stop offset="0.9875" stop-color="#020202"/>
<stop offset="1"/>
</linearGradient>
<linearGradient id="paint1_linear_52_4023" x1="-1.12571" y1="95.9347" x2="28.4446" y2="197.502" gradientUnits="userSpaceOnUse">
<stop offset="0.0391" stop-color="#BDB58F"/>
<stop offset="0.9875" stop-color="#020202"/>
<stop offset="1"/>
</linearGradient>
<linearGradient id="paint2_linear_52_4023" x1="-17.1508" y1="28.0276" x2="27.7617" y2="38.8271" gradientUnits="userSpaceOnUse">
<stop offset="0.0391" stop-color="#BDB58F"/>
<stop offset="0.9875" stop-color="#020202"/>
<stop offset="1"/>
</linearGradient>
<linearGradient id="paint3_linear_52_4023" x1="12.2981" y1="-12.0252" x2="25.1017" y2="34.9759" gradientUnits="userSpaceOnUse">
<stop offset="0.0391" stop-color="#BDB58F"/>
<stop offset="0.9875" stop-color="#020202"/>
<stop offset="1"/>
</linearGradient>
<linearGradient id="paint4_linear_52_4023" x1="23.6493" y1="-12.3654" x2="37.7059" y2="37.3468" gradientUnits="userSpaceOnUse">
<stop offset="0.0391" stop-color="#BDB58F"/>
<stop offset="0.9875" stop-color="#020202"/>
<stop offset="1"/>
</linearGradient>
<linearGradient id="paint5_linear_52_4023" x1="12.1719" y1="119.906" x2="29.7855" y2="209.002" gradientUnits="userSpaceOnUse">
<stop offset="0.0391" stop-color="#BDB58F"/>
<stop offset="0.9875" stop-color="#020202"/>
<stop offset="1"/>
</linearGradient>
<linearGradient id="paint6_linear_52_4023" x1="4.04386" y1="76.9146" x2="27.4428" y2="145.826" gradientUnits="userSpaceOnUse">
<stop offset="0.0391" stop-color="#BDB58F"/>
<stop offset="0.9875" stop-color="#020202"/>
<stop offset="1"/>
</linearGradient>
</defs>
</svg>
